<?xml version="1.0" encoding="utf-8"?>
<!-- Generator: Adobe Illustrator 21.0.2, SVG Export Plug-In . SVG Version: 6.00 Build 0)  -->
<svg version="1.1" id="Layer_1" xmlns="http://www.w3.org/2000/svg" xmlns:xlink="http://www.w3.org/1999/xlink" x="0px" y="0px"
	 viewBox="0 0 200 150" style="enable-background:new 0 0 200 150;" xml:space="preserve">
<style type="text/css">
	.st0{fill:#231F20;}
	.st1{fill:#231F20;stroke:#231F20;stroke-width:2.6989;stroke-miterlimit:10;}
	.st2{fill:#FFFFFF;}
	.st3{fill:#231F20;stroke:#231F20;stroke-width:1.0562;stroke-miterlimit:10;}
	.st4{fill:#231F20;stroke:#231F20;stroke-width:1.5513;stroke-miterlimit:10;}
	.st5{fill:#231F20;stroke:#231F20;stroke-width:1.488;stroke-miterlimit:10;}
</style>
<g>
	<g>
		<path class="st0" d="M19.5,61.9v6c0,0-0.1,0-0.1,0c-0.6-0.2-1.2-0.3-1.8-0.3c-1.7,0-3.3,0.6-4.4,1.8c-0.6,0.6-0.9,1.4-1.2,2.2
			c-0.2,0.8-0.2,1.5-0.2,2.3v11.5H6V62.2h5.7v3.4C11.7,65.6,14.2,61.6,19.5,61.9z"/>
		<path class="st0" d="M53.2,62.2v23.1h-5.7v-4.7c-2.2,3.2-5.9,5.4-10.1,5.4c-6.7,0-12.2-5.5-12.2-12.3c0-6.8,5.5-12.2,12.2-12.2
			c4.2,0,8,2.1,10.1,5.4v-4.6H53.2z M46.1,73.8c0-4.2-3.4-7.6-7.6-7.6c-4.2,0-7.6,3.4-7.6,7.6c0,4.2,3.4,7.6,7.6,7.6
			C42.6,81.4,46.1,78,46.1,73.8z"/>
		<path class="st0" d="M82.7,80c-0.5,0.9-1.1,1.6-1.8,2.3c-2.3,2.3-5.3,3.6-8.5,3.6c-3.3,0-6.3-1.3-8.6-3.6
			c-2.3-2.3-3.5-5.4-3.5-8.6c0-3.3,1.2-6.3,3.5-8.6c2.3-2.3,5.3-3.6,8.6-3.6c3.2,0,6.3,1.2,8.5,3.6c0.3,0.3,0.6,0.6,0.9,0.9
			l-4.2,3.2c-1.3-1.5-3.1-2.5-5.2-2.5c-3.8,0-6.9,3.1-6.9,7c0,3.8,3.1,7,6.9,7c2.5,0,4.6-1.3,5.8-3.3L82.7,80z"/>
		<path class="st0" d="M110.9,80c-0.5,0.9-1.1,1.6-1.8,2.3c-2.3,2.3-5.3,3.6-8.5,3.6c-3.3,0-6.3-1.3-8.6-3.6
			c-2.3-2.3-3.5-5.4-3.5-8.6c0-3.3,1.2-6.3,3.5-8.6c2.3-2.3,5.3-3.6,8.6-3.6c3.2,0,6.3,1.2,8.5,3.6c0.3,0.3,0.6,0.6,0.9,0.9
			l-4.2,3.2c-1.3-1.5-3.1-2.5-5.2-2.5c-3.8,0-6.9,3.1-6.9,7c0,3.8,3.1,7,6.9,7c2.5,0,4.6-1.3,5.8-3.3L110.9,80z"/>
		<path class="st0" d="M128.6,85.9c-3.2,0-6.3-1.2-8.5-3.6c-2.3-2.3-3.6-5.4-3.6-8.6c0-3.2,1.3-6.3,3.6-8.6c2.3-2.3,5.3-3.6,8.5-3.6
			s6.3,1.3,8.5,3.6c2.3,2.3,3.5,5.4,3.5,8.6c0,3.3-1.2,6.3-3.5,8.6C134.9,84.7,131.9,85.9,128.6,85.9z M128.6,66.8
			c-3.8,0-6.9,3.1-6.9,7c0,3.9,3.1,7,6.9,7s6.8-3.1,6.8-7C135.5,69.9,132.4,66.8,128.6,66.8z"/>
	</g>
	<g>
		<path class="st0" d="M97.5,104.1c-3.6,0.3-6.4,3.4-7.1,7.1v11.6h-1.4v-20.1h1.4v4.7c0,0,0.8-1.4,2.1-2.6c1.4-1.3,3.1-1.9,5-2.1
			V104.1z"/>
		<path class="st0" d="M117.7,113.3H99.5c0.7,5.3,4.7,7.8,8.4,7.8c1.5,0,3-0.5,4.3-1.2l2.4,0c-1.8,1.7-4.2,2.7-6.7,2.7
			c-5.4,0-9.8-4.5-9.8-10.1c0-5.6,4.4-10.1,9.8-10.1C113.4,102.5,117.6,107.2,117.7,113.3z M116.1,111.8c-1-5.2-4.5-7.9-8.2-7.9
			c-3.7,0-7.5,2.3-8.3,7.9H116.1z"/>
		<path class="st0" d="M134.1,102.6h1.7l-8.7,20.2l-8.7-20.2h1.6l7,16l7.1-16H134.1z"/>
		<path class="st0" d="M139.2,95.7c0-0.5,0.4-0.9,0.9-0.9c0.5,0,0.9,0.4,0.9,0.9c0,0.5-0.4,0.9-0.9,0.9
			C139.6,96.6,139.2,96.2,139.2,95.7z M140.8,102.7v20.1h-1.6v-20.1H140.8z"/>
		<path class="st0" d="M164.1,113.3h-18.2c0.7,5.3,4.7,7.8,8.4,7.8c1.5,0,3-0.5,4.3-1.2l2.4,0c-1.8,1.7-4.2,2.7-6.7,2.7
			c-5.4,0-9.8-4.5-9.8-10.1c0-5.6,4.4-10.1,9.8-10.1C159.8,102.5,163.9,107.2,164.1,113.3z M162.5,111.8c-1-5.2-4.5-7.9-8.2-7.9
			s-7.5,2.3-8.3,7.9H162.5z"/>
		<path class="st0" d="M179.6,107.5l-6.4,15.2l-8.3-20.2h1.4l7,16.4l6.3-14.9l6.3,14.9l7-16.4h1.4l-8.4,20.2L179.6,107.5z"/>
	</g>
	<circle class="st1" cx="128.5" cy="73.5" r="11.8"/>
	<circle class="st1" cx="150.8" cy="73.5" r="11.8"/>
	<g>
		<path class="st0" d="M188,85.4V74.7c0-1.8,0.1-4.4-1.2-5.8c-1.1-1.3-2.8-1.9-4.6-1.8c-1.9,0-3.4,0.6-4.5,1.8
			c-1.3,1.5-1.3,3.7-1.3,5.6v4.2c0,2.3,0,4.5,0,6.8h-5.7V62.2h5.7v3.5c0-0.3,2.7-4.2,8.3-3.8c4,0.3,6.9,2.6,8.2,6.4
			c0.9,2.6,0.9,5.4,0.9,8.2v9.1H188z"/>
	</g>
	<circle class="st2" cx="128.5" cy="73.5" r="3.5"/>
	<circle class="st2" cx="151.4" cy="73.5" r="3.5"/>
	<circle class="st3" cx="139.9" cy="92.2" r="4.6"/>
	<path class="st4" d="M151.4,50.5c1.4,3.7,14.7,7.8,15.2,3.9C171.7,20.1,150.1,47.1,151.4,50.5z"/>
	<path class="st5" d="M128.5,50.3c-1.4,3.5-14.1,7.5-14.6,3.7C109,21.2,129.7,47.1,128.5,50.3z"/>
	<circle class="st3" cx="129.7" cy="75.8" r="1.3"/>
	<circle class="st3" cx="151.7" cy="75.8" r="1.3"/>
</g>
</svg>
